<svg width="421" height="322" viewBox="0 0 421 322" fill="none" xmlns="http://www.w3.org/2000/svg">
<path d="M330.012 26V37.8355" stroke="#E3E3E3" stroke-width="1.51232" stroke-miterlimit="10"/>
<path d="M330.012 96.1436V108" stroke="#E3E3E3" stroke-width="1.51232" stroke-miterlimit="10"/>
<path d="M370.971 66.9912H359.136" stroke="#E3E3E3" stroke-width="1.51232" stroke-miterlimit="10"/>
<path d="M300.836 66.9912H289" stroke="#E3E3E3" stroke-width="1.51232" stroke-miterlimit="10"/>
<path d="M358.974 38.0068L350.602 46.379" stroke="#E3E3E3" stroke-width="1.51232" stroke-miterlimit="10"/>
<path d="M309.373 87.6006L301.007 95.9727" stroke="#E3E3E3" stroke-width="1.51232" stroke-miterlimit="10"/>
<path d="M358.974 95.9727L350.602 87.6006" stroke="#E3E3E3" stroke-width="1.51232" stroke-miterlimit="10"/>
<path d="M308.444 46.2965L298.388 37.7744" stroke="#E3E3E3" stroke-width="1.51232" stroke-miterlimit="10"/>
<path d="M40.8826 199.021C46.4077 194.887 52.6851 191.862 59.3674 190.113C66.2129 188.321 73.3477 187.905 80.357 188.888C87.366 189.871 94.1103 192.234 100.198 195.84C106.287 199.446 111.598 204.224 115.822 209.895C120.047 215.565 123.102 222.017 124.809 228.875C126.517 235.733 126.843 242.861 125.769 249.844C124.694 256.827 122.24 263.528 118.55 269.556C114.949 275.439 110.238 280.567 104.683 284.658L127.06 314.707C166.93 284.78 175.186 228.048 145.335 187.996C115.483 147.945 58.7233 139.471 18.5046 168.972L40.8826 199.021Z" stroke="#E3E3E3"/>
<path d="M419.089 102.121L412.917 93.9805" stroke="#E3E3E3" stroke-width="0.981622" stroke-miterlimit="10"/>
<path d="M415.499 104.925L409.326 96.7852" stroke="#E3E3E3" stroke-width="0.981622" stroke-miterlimit="10"/>
<path d="M411.291 108.19L405.119 100.05" stroke="#E3E3E3" stroke-width="0.981622" stroke-miterlimit="10"/>
<path d="M406.535 111.923L400.385 103.785" stroke="#E3E3E3" stroke-width="0.981622" stroke-miterlimit="10"/>
<path d="M401.168 116.116L394.995 107.976" stroke="#E3E3E3" stroke-width="0.981622" stroke-miterlimit="10"/>
<path d="M395.203 120.77L389.03 112.63" stroke="#E3E3E3" stroke-width="0.981622" stroke-miterlimit="10"/>
<path d="M388.656 125.893L382.483 117.753" stroke="#E3E3E3" stroke-width="0.981622" stroke-miterlimit="10"/>
<path d="M381.515 131.467L375.343 123.327" stroke="#E3E3E3" stroke-width="0.981622" stroke-miterlimit="10"/>
<path d="M373.779 137.51L367.606 129.37" stroke="#E3E3E3" stroke-width="0.981622" stroke-miterlimit="10"/>
<path d="M365.453 144.015L359.28 135.875" stroke="#E3E3E3" stroke-width="0.981622" stroke-miterlimit="10"/>
<path d="M356.533 150.983L350.36 142.843" stroke="#E3E3E3" stroke-width="0.981622" stroke-miterlimit="10"/>
<path d="M347.021 158.412L340.852 150.249" stroke="#E3E3E3" stroke-width="0.981622" stroke-miterlimit="10"/>
<path d="M336.854 166.355L330.681 158.215" stroke="#E3E3E3" stroke-width="0.981622" stroke-miterlimit="10"/>
<path d="M326.159 174.71L319.986 166.57" stroke="#E3E3E3" stroke-width="0.981622" stroke-miterlimit="10"/>
<path d="M314.87 183.528L308.698 175.388" stroke="#E3E3E3" stroke-width="0.981622" stroke-miterlimit="10"/>
<path d="M302.992 192.807L296.819 184.667" stroke="#E3E3E3" stroke-width="0.981622" stroke-miterlimit="10"/>
<path d="M290.519 202.55L284.347 194.41" stroke="#E3E3E3" stroke-width="0.981622" stroke-miterlimit="10"/>
<path d="M276.62 213.408L270.447 205.268" stroke="#E3E3E3" stroke-width="0.981622" stroke-miterlimit="10"/>
<path d="M262.964 224.076L256.791 215.936" stroke="#E3E3E3" stroke-width="0.981622" stroke-miterlimit="10"/>
<path d="M248.125 235.668L241.952 227.527" stroke="#E3E3E3" stroke-width="0.981622" stroke-miterlimit="10"/>
<path d="M230.917 249.11L224.744 240.97" stroke="#E3E3E3" stroke-width="0.981622" stroke-miterlimit="10"/>
<path d="M213.116 263.015L206.943 254.875" stroke="#E3E3E3" stroke-width="0.981622" stroke-miterlimit="10"/>
<path d="M193.541 278.308L187.379 270.169" stroke="#E3E3E3" stroke-width="0.981622" stroke-miterlimit="10"/>
<path d="M167.307 293.586L163.609 288.702" stroke="#E3E3E3" stroke-width="0.981622" stroke-miterlimit="10"/>
<path d="M327.256 204.186C320.293 204.223 313.496 206.324 307.727 210.223C301.958 214.122 297.474 219.644 294.843 226.092C292.212 232.539 291.552 239.622 292.947 246.444C294.341 253.267 297.727 259.522 302.677 264.42C307.627 269.318 313.918 272.639 320.754 273.961C327.591 275.284 334.667 274.549 341.086 271.851C347.505 269.152 352.98 264.611 356.819 258.801C360.657 252.99 362.686 246.173 362.649 239.209C362.626 234.585 361.692 230.011 359.901 225.748C358.109 221.486 355.495 217.618 352.208 214.365C348.922 211.113 345.026 208.54 340.745 206.793C336.463 205.047 331.88 204.161 327.256 204.186Z" stroke="#E3E3E3" stroke-width="1.21088" stroke-miterlimit="10"/>
<path d="M327.943 224.665C329.877 224.655 331.795 225.027 333.585 225.758C335.376 226.489 337.005 227.565 338.379 228.926C339.754 230.286 340.848 231.904 341.597 233.688C342.347 235.471 342.738 237.384 342.748 239.318C342.764 242.233 341.915 245.088 340.309 247.521C338.703 249.953 336.411 251.854 333.724 252.984C331.037 254.114 328.074 254.422 325.212 253.868C322.351 253.314 319.718 251.924 317.646 249.874C315.574 247.823 314.157 245.205 313.574 242.349C312.991 239.493 313.268 236.528 314.37 233.829C315.472 231.131 317.35 228.819 319.766 227.188C322.182 225.556 325.028 224.679 327.943 224.665Z" stroke="#E3E3E3"/>
<path d="M384.154 184.709C398.999 199.587 407.392 219.719 407.499 240.749C407.607 261.946 399.291 282.318 384.379 297.383C369.467 312.448 349.181 320.971 327.984 321.079C306.954 321.186 286.737 313 271.708 298.308L294.819 274.92C299.135 279.104 304.211 282.427 309.779 284.701C315.501 287.038 321.628 288.225 327.809 288.194C333.989 288.164 340.103 286.917 345.802 284.523C351.5 282.13 356.673 278.638 361.021 274.246C365.37 269.854 368.811 264.648 371.148 258.926C373.486 253.204 374.673 247.078 374.643 240.897C374.612 234.717 373.365 228.602 370.972 222.903C368.643 217.358 365.27 212.315 361.044 208.04L384.154 184.709Z" stroke="#E3E3E3"/>
<path d="M226.993 0.344727C229.574 0.343797 232.131 0.851557 234.516 1.83887C236.901 2.8263 239.068 4.27428 240.894 6.09961C242.719 7.92493 244.167 10.0925 245.154 12.4775C246.142 14.8625 246.649 17.4188 246.648 20C246.648 23.8874 245.496 27.6876 243.336 30.9199C241.176 34.1522 238.106 36.6715 234.515 38.1592C230.923 39.6467 226.971 40.0357 223.158 39.2773C219.346 38.5189 215.843 36.6472 213.095 33.8984C210.346 31.1497 208.474 27.6475 207.716 23.835C206.957 20.0223 207.346 16.07 208.834 12.4785C210.322 8.88701 212.841 5.81696 216.073 3.65723C219.306 1.49749 223.106 0.344727 226.993 0.344727Z" stroke="#E3E3E3" stroke-width="0.689655"/>
<path d="M99.5 105.345C100.965 105.344 102.416 105.633 103.77 106.193C105.123 106.754 106.353 107.575 107.389 108.611C108.425 109.647 109.246 110.877 109.807 112.23C110.367 113.584 110.656 115.035 110.655 116.5C110.655 118.706 110.001 120.863 108.775 122.697C107.55 124.532 105.807 125.961 103.769 126.806C101.73 127.65 99.4879 127.871 97.3242 127.44C95.1603 127.01 93.1724 125.948 91.6123 124.388C90.0522 122.828 88.99 120.84 88.5596 118.676C88.1293 116.512 88.3501 114.27 89.1943 112.231C90.0386 110.193 91.4683 108.45 93.3027 107.225C95.1371 105.999 97.2938 105.345 99.5 105.345Z" stroke="#E3E3E3" stroke-width="0.689655"/>
<path d="M267.098 54C267.157 59.2969 266.165 64.553 264.179 69.4638C262.193 74.3747 259.253 78.8428 255.528 82.6095C251.803 86.3761 247.369 89.3665 242.48 91.4074C237.592 93.4482 232.347 94.4991 227.05 94.4991C221.753 94.4991 216.508 93.4482 211.62 91.4074C206.732 89.3665 202.297 86.3761 198.572 82.6095C194.847 78.8428 191.907 74.3747 189.921 69.4638C187.935 64.553 186.943 59.2969 187.003 54" stroke="#E3E3E3" stroke-width="0.566007"/>
<path d="M267.098 98.25C267.157 103.547 266.165 108.803 264.179 113.714C262.193 118.625 259.253 123.093 255.528 126.859C251.803 130.626 247.369 133.616 242.48 135.657C237.592 137.698 232.347 138.749 227.05 138.749C221.753 138.749 216.508 137.698 211.62 135.657C206.732 133.616 202.297 130.626 198.572 126.859C194.847 123.093 191.907 118.625 189.921 113.714C187.935 108.803 186.943 103.547 187.003 98.25" stroke="#E3E3E3" stroke-width="0.566007"/>
<path d="M267.098 142.501C267.157 147.798 266.165 153.054 264.179 157.965C262.193 162.876 259.253 167.344 255.528 171.11C251.803 174.877 247.369 177.867 242.48 179.908C237.592 181.949 232.347 183 227.05 183C221.753 183 216.508 181.949 211.62 179.908C206.732 177.867 202.297 174.877 198.572 171.11C194.847 167.344 191.907 162.876 189.921 157.965C187.935 153.054 186.943 147.798 187.003 142.501" stroke="#E3E3E3" stroke-width="0.566007"/>
<path d="M134.533 103.74L98.9878 80.0055L137.315 61.0898L134.533 103.74Z" stroke="#D9D9D9"/>
</svg>
