<svg width="137" height="580" viewBox="0 0 137 580" fill="none" xmlns="http://www.w3.org/2000/svg">
<path d="M68.5 0.5C72.243 0.498652 75.9498 1.23522 79.4082 2.66699C82.8665 4.09876 86.0086 6.19804 88.6553 8.84473C91.302 11.4914 93.4012 14.6335 94.833 18.0918C96.2648 21.5502 97.0013 25.257 97 29C97 34.6368 95.3289 40.1472 92.1973 44.834C89.0656 49.5208 84.6139 53.173 79.4062 55.3301C74.1986 57.4872 68.4679 58.0518 62.9395 56.9521C57.4112 55.8524 52.3333 53.138 48.3477 49.1523C44.3619 45.1665 41.6475 40.088 40.5479 34.5596C39.4483 29.0313 40.0129 23.3013 42.1699 18.0938C44.327 12.8861 47.9792 8.43435 52.666 5.30273C57.3528 2.17112 62.8632 0.500001 68.5 0.5Z" stroke="#E3E3E3"/>
<path d="M132.553 74C132.648 82.472 131.061 90.8787 127.885 98.7333C124.709 106.588 120.006 113.734 114.048 119.759C108.091 125.783 100.998 130.566 93.1795 133.83C85.361 137.095 76.9726 138.775 68.5001 138.775C60.0276 138.775 51.6392 137.095 43.8207 133.83C36.0023 130.566 28.909 125.783 22.9517 119.759C16.9944 113.734 12.2914 106.588 9.11505 98.7333C5.93869 90.8787 4.35207 82.472 4.44707 74" stroke="#E3E3E3" stroke-width="0.905287"/>
<path d="M132.553 144.775C132.648 153.247 131.061 161.654 127.885 169.509C124.709 177.363 120.006 184.51 114.048 190.534C108.091 196.559 100.998 201.341 93.1795 204.606C85.361 207.87 76.9726 209.551 68.5001 209.551C60.0276 209.551 51.6392 207.87 43.8207 204.606C36.0023 201.341 28.909 196.559 22.9517 190.534C16.9944 184.51 12.2914 177.363 9.11505 169.509C5.93869 161.654 4.35207 153.247 4.44707 144.775" stroke="#E3E3E3" stroke-width="0.905287"/>
<path d="M132.553 215.551C132.648 224.023 131.061 232.429 127.885 240.284C124.709 248.139 120.006 255.285 114.048 261.31C108.091 267.334 100.998 272.117 93.1795 275.381C85.361 278.645 76.9726 280.326 68.5001 280.326C60.0276 280.326 51.6392 278.645 43.8207 275.381C36.0023 272.117 28.909 267.334 22.9517 261.31C16.9944 255.285 12.2914 248.139 9.11505 240.284C5.93869 232.429 4.35207 224.023 4.44707 215.551" stroke="#E3E3E3" stroke-width="0.905287"/>
<path d="M40.6191 303.163C52.1234 297.648 65.0047 295.67 77.6338 297.477C90.2628 299.283 102.073 304.794 111.569 313.312C121.066 321.831 127.823 332.976 130.986 345.335C134.149 357.694 133.576 370.714 129.339 382.747C125.102 394.78 117.391 405.287 107.183 412.938C96.9739 420.59 84.7254 425.042 71.9863 425.731C63.5298 426.191 55.0656 424.979 47.0771 422.167C39.0886 419.355 31.732 414.997 25.4277 409.342C19.1235 403.687 13.9951 396.845 10.335 389.208C6.67479 381.571 4.55459 373.288 4.0957 364.831C3.4024 352.092 6.50169 339.434 13.0029 328.457C19.5042 317.48 29.1149 308.678 40.6191 303.163ZM75.835 352.625L60.252 353.466L59.7529 353.493L59.7803 353.993L60.6318 369.564L60.6592 370.063L61.1582 370.036L76.7295 369.195L77.2285 369.168L77.2021 368.669L76.3604 353.098L76.334 352.598L75.835 352.625Z" stroke="#E3E3E3"/>
<path d="M80.744 462.512C87.7074 462.549 94.5035 464.65 100.273 468.549C106.042 472.448 110.526 477.971 113.157 484.418C115.788 490.865 116.448 497.948 115.053 504.77C113.659 511.593 110.273 517.849 105.323 522.747C100.373 527.645 94.0823 530.965 87.2455 532.287C80.4088 533.61 73.3334 532.876 66.9141 530.177C60.4947 527.478 55.0197 522.937 51.1815 517.127C47.3432 511.317 45.3141 504.499 45.3506 497.535C45.3739 492.911 46.308 488.337 48.0995 484.075C49.891 479.812 52.5048 475.944 55.7916 472.691C59.0784 469.439 62.9737 466.866 67.2551 465.119C71.5366 463.373 76.1201 462.487 80.744 462.512Z" stroke="#E3E3E3" stroke-width="1.21088" stroke-miterlimit="10"/>
<path d="M80.0571 482.991C78.123 482.981 76.2053 483.353 74.4146 484.084C72.624 484.815 70.9952 485.891 69.6206 487.252C68.2459 488.613 67.1522 490.231 66.4028 492.014C65.6535 493.797 65.2624 495.71 65.2524 497.645C65.2361 500.56 66.0847 503.414 67.6909 505.847C69.297 508.279 71.5889 510.181 74.2759 511.311C76.963 512.441 79.9256 512.748 82.7876 512.194C85.6493 511.641 88.2823 510.251 90.354 508.2C92.4258 506.15 93.8432 503.531 94.4263 500.675C95.0093 497.819 94.7325 494.854 93.6304 492.155C92.5281 489.457 90.6498 487.145 88.2339 485.514C85.818 483.883 82.972 483.005 80.0571 482.991Z" stroke="#E3E3E3"/>
<path d="M23.8457 443.035C9.00134 457.913 0.608412 478.045 0.500977 499.075C0.392787 520.272 8.70928 540.644 23.6211 555.709C38.5329 570.774 58.819 579.297 80.0156 579.405C101.046 579.513 121.263 571.326 136.292 556.634L113.181 533.246C108.865 537.43 103.789 540.753 98.2207 543.027C92.4988 545.365 86.3722 546.551 80.1914 546.521C74.0108 546.49 67.8968 545.243 62.1982 542.85C56.4996 540.456 51.3275 536.964 46.9785 532.572C42.6295 528.18 39.1887 522.974 36.8516 517.252C34.5145 511.53 33.327 505.404 33.3574 499.224C33.3878 493.043 34.6349 486.928 37.0283 481.229C39.3573 475.684 42.7296 470.641 46.9561 466.366L23.8457 443.035Z" stroke="#E3E3E3"/>
</svg>
