<svg width="154" height="142" viewBox="0 0 154 142" fill="none" xmlns="http://www.w3.org/2000/svg">
<g clip-path="url(#clip0_248_2138)">
<path d="M134.98 27.7598H151.117V101.399H134.98V27.7598Z" fill="url(#paint0_linear_248_2138)"/>
<path d="M69.446 73.9657C69.446 84.186 63.5096 92.9548 54.4248 98.1258C48.871 101.3 42.1359 103.125 34.8693 103.125C15.1333 103.125 0.000366211 89.8398 0.000366211 72.3769H17.7254C17.7254 80.4604 25.2095 86.5191 34.7233 86.5191C44.2368 86.5191 51.7209 80.7441 51.7209 71.7913C51.7209 63.4148 44.6658 56.9171 34.431 56.9171H21.7596V42.9119H34.431C43.2269 42.9119 49.8436 37.4294 49.8436 29.6261C49.8436 26.3055 48.6159 23.4957 46.5834 21.3401C52.3021 20.9009 59.258 21.5332 67.2145 24.424C67.3605 25.4644 67.4227 26.5329 67.4227 27.6076C67.4227 36.9871 61.9526 45.2262 53.8843 49.5532C63.2425 54.179 69.4429 63.5584 69.4429 73.9626L69.446 73.9657Z" fill="url(#paint1_linear_248_2138)"/>
<path d="M130.37 85.3636V101.789H97.8131C84.9492 101.789 74.5154 91.332 74.5154 78.4387V37.3328C74.5154 33.0993 73.2319 29.165 71.047 25.8911C70.099 24.4862 68.9895 23.1997 67.7338 22.069C67.3516 21.7138 66.9506 21.3837 66.5403 21.0659C66.5496 21.0939 66.5496 21.1126 66.5591 21.1376C55.3981 12.9606 32.2929 12.4341 23.7429 20.4896C23.6869 20.527 23.6434 20.58 23.5874 20.6267C21.0917 22.8539 19.5905 25.8817 19.5905 29.3488H2.02087C2.02087 17.8979 8.51041 7.79583 19.0435 3.44411C28.6038 -0.496415 44.9985 -0.131953 51.3732 0.185781H51.3824C53.0391 0.266772 54.0149 0.350878 54.0149 0.350878C74.1427 1.90217 90.904 16.9385 90.904 37.3328V78.4387C90.904 82.2609 93.9998 85.3636 97.8131 85.3636H130.37Z" fill="url(#paint2_linear_248_2138)"/>
<path d="M143.044 21.9664C149.094 21.9664 154 17.0502 154 10.9859C154 4.92151 149.094 0.00537109 143.044 0.00537109C136.993 0.00537109 132.088 4.92151 132.088 10.9859C132.088 17.0502 136.993 21.9664 143.044 21.9664Z" fill="url(#paint3_linear_248_2138)"/>
<path d="M71.0476 25.89C70.0996 24.4851 68.9902 23.1987 67.7344 22.0679C69.0832 23.208 70.2021 24.4851 71.0476 25.89Z" fill="url(#paint4_linear_248_2138)"/>
<path d="M74.5194 37.3293C74.5194 33.0959 73.2356 29.1616 71.0507 25.8877C70.1026 24.4828 68.9932 23.1963 67.7375 22.0655C67.3553 21.7104 66.9543 21.3802 66.544 21.0625C66.5532 21.0905 66.5532 21.1092 66.5628 21.1341C55.4018 12.9572 32.2969 12.4307 23.7466 20.4862C23.6906 20.5236 23.6471 20.5765 23.5912 20.6233C21.0954 22.8505 19.5943 25.8783 19.5943 29.3454H2.02463C2.02463 17.8945 8.51416 7.7924 19.0473 3.44069C28.6075 -0.499834 45.0025 -0.135371 51.3769 0.182363H51.3861C51.9611 0.319426 75.3833 5.94832 74.5194 37.3293Z" fill="url(#paint5_linear_248_2138)"/>
<path d="M54.4264 98.1259C48.8725 101.3 42.1375 103.126 34.8708 103.126C15.1349 103.126 0.00189209 89.8399 0.00189209 72.377H17.727C17.727 72.377 16.5708 97.3131 54.4264 98.1259Z" fill="url(#paint6_linear_248_2138)"/>
<path d="M134.981 27.7603L151.115 101.4H134.981V27.7603Z" fill="url(#paint7_linear_248_2138)"/>
<path d="M19.3498 130.164H23.3436V138.273C21.109 140.737 17.917 141.971 13.7647 141.971C10.2682 141.971 7.3404 140.818 4.98142 138.51C2.62243 136.205 1.44449 133.286 1.44449 129.759C1.44449 126.233 2.6473 123.293 5.0498 120.941C7.45229 118.589 10.3583 117.412 13.7647 117.412C17.1711 117.412 20.0025 118.408 22.2589 120.396L20.1268 123.448C19.2006 122.657 18.2713 122.109 17.3358 121.804C16.4003 121.498 15.3094 121.346 14.0693 121.346C11.6761 121.346 9.66832 122.121 8.04593 123.67C6.42043 125.218 5.60922 127.255 5.60922 129.775C5.60922 132.295 6.39869 134.32 7.97756 135.846C9.55643 137.373 11.4679 138.136 13.7149 138.136C15.9621 138.136 17.8393 137.65 19.3498 136.678V130.164Z" fill="#B9ABED"/>
<path d="M31.2919 141.698V117.986H35.2857V137.897H46.083V141.698H31.2919Z" fill="#B9ABED"/>
<path d="M72.2799 138.423C69.8867 140.762 66.9308 141.934 63.4126 141.934C59.8943 141.934 56.9353 140.762 54.5452 138.423C52.1521 136.084 50.9586 133.165 50.9586 129.673C50.9586 126.181 52.1552 123.262 54.5452 120.923C56.9353 118.583 59.8943 117.412 63.4126 117.412C66.9308 117.412 69.8867 118.583 72.2799 120.923C74.67 123.262 75.8665 126.181 75.8665 129.673C75.8665 133.165 74.67 136.084 72.2799 138.423ZM69.352 123.583C67.739 121.91 65.7592 121.072 63.4126 121.072C61.0659 121.072 59.0861 121.91 57.4731 123.583C55.8601 125.256 55.0519 127.287 55.0519 129.673C55.0519 132.059 55.857 134.09 57.4731 135.763C59.0861 137.436 61.0659 138.273 63.4126 138.273C65.7592 138.273 67.739 137.439 69.352 135.763C70.965 134.09 71.7732 132.059 71.7732 129.673C71.7732 127.287 70.965 125.259 69.352 123.583Z" fill="#B9ABED"/>
<path d="M93.9742 141.698H83.6183V117.986H92.8244C94.4248 117.986 95.808 118.179 96.9704 118.562C98.1328 118.945 98.9936 119.469 99.5594 120.123C100.641 121.344 101.185 122.724 101.185 124.259C101.185 126.113 100.597 127.493 99.4258 128.399C98.9967 128.717 98.7047 128.913 98.5461 128.991C98.3875 129.069 98.1048 129.2 97.7007 129.381C99.1677 129.698 100.333 130.359 101.204 131.365C102.071 132.371 102.506 133.62 102.506 135.112C102.506 136.763 101.94 138.221 100.812 139.489C99.4815 140.959 97.2005 141.694 93.9742 141.694V141.698ZM87.6121 127.823H92.6877C95.5748 127.823 97.02 126.839 97.02 124.873C97.02 123.742 96.6689 122.929 95.9697 122.431C95.2702 121.933 94.1855 121.683 92.7215 121.683H87.6121V127.823ZM87.6121 138H93.8747C95.3417 138 96.4637 137.77 97.2408 137.305C98.0179 136.841 98.4094 135.966 98.4094 134.676C98.4094 132.574 96.728 131.521 93.3649 131.521H87.6121V138Z" fill="#B9ABED"/>
<path d="M113.298 136.305L110.929 141.698H106.665L117.089 117.986H121.354L131.778 141.698H127.514L125.145 136.305H113.298ZM123.52 132.608L119.221 122.839L114.923 132.608H123.52Z" fill="#B9ABED"/>
<path d="M137.765 141.698V117.986H141.759V137.897H152.556V141.698H137.765Z" fill="#B9ABED"/>
</g>
<defs>
<linearGradient id="paint0_linear_248_2138" x1="143.045" y1="3.83314" x2="143.045" y2="73.825" gradientUnits="userSpaceOnUse">
<stop stop-color="#7558DA"/>
<stop offset="1" stop-color="#B9ABED"/>
</linearGradient>
<linearGradient id="paint1_linear_248_2138" x1="0.000366211" y1="62.172" x2="69.446" y2="62.172" gradientUnits="userSpaceOnUse">
<stop stop-color="#7558DA"/>
<stop offset="1" stop-color="#B9ABED"/>
</linearGradient>
<linearGradient id="paint2_linear_248_2138" x1="65.6918" y1="33.7318" x2="66.9906" y2="94.1758" gradientUnits="userSpaceOnUse">
<stop stop-color="#7558DA"/>
<stop offset="1" stop-color="#B9ABED"/>
</linearGradient>
<linearGradient id="paint3_linear_248_2138" x1="143.044" y1="3.83376" x2="143.044" y2="73.8256" gradientUnits="userSpaceOnUse">
<stop stop-color="#7558DA"/>
<stop offset="1" stop-color="#B9ABED"/>
</linearGradient>
<linearGradient id="paint4_linear_248_2138" x1="67.7344" y1="23.9774" x2="71.0476" y2="23.9774" gradientUnits="userSpaceOnUse">
<stop stop-color="#7558DA"/>
<stop offset="1" stop-color="#B9ABED"/>
</linearGradient>
<linearGradient id="paint5_linear_248_2138" x1="17.5243" y1="18.667" x2="50.9417" y2="18.667" gradientUnits="userSpaceOnUse">
<stop stop-color="#7558DA"/>
<stop offset="1" stop-color="#B9ABED"/>
</linearGradient>
<linearGradient id="paint6_linear_248_2138" x1="18.273" y1="87.7512" x2="47.2769" y2="99.4298" gradientUnits="userSpaceOnUse">
<stop stop-color="#7558DA"/>
<stop offset="1" stop-color="#B9ABED"/>
</linearGradient>
<linearGradient id="paint7_linear_248_2138" x1="143.047" y1="27.7603" x2="143.047" y2="101.4" gradientUnits="userSpaceOnUse">
<stop stop-color="#7558DA"/>
<stop offset="1" stop-color="#B9ABED"/>
</linearGradient>
<clipPath id="clip0_248_2138">
<rect width="154" height="142" fill="white"/>
</clipPath>
</defs>
</svg>
